<?xml version="1.0" encoding="UTF-8"?>
<svg id="Football-Logo" xmlns="http://www.w3.org/2000/svg" viewBox="0 0 95 95">
  <g id="Football">
    <path id="Left" fill="#d50a0a" d="M59.29,2.14c-13.03,3.26-25.72,10.25-36.31,20.84C3.17,42.78-4.02,69.92,2.14,92.86c6.19,1.66,12.69,2.35,19.26,2.08-10.36-17.13-10.96-40.76.34-61.48C30.39,17.58,44.27,6.64,59.29,2.14Z"></path>
    <path id="Right" fill="#013369" d="M72.02,72.02c19.8-19.8,27-46.94,20.84-69.88C86.67.48,80.17-.21,73.6.06c10.36,17.13,10.96,40.76-.34,61.48-8.66,15.88-22.53,26.82-37.55,31.32,13.03-3.26,25.72-10.25,36.31-20.84Z"></path>
    <path id="Laces" fill="#faf8f1" d="M28.1,69.78c-.72,0-1.38-.31-1.97-.92-.6-.58-.91-1.25-.91-1.97,0-1.58,1.5-2.99,2.7-4.12.09-.09.19-.18.27-.26-1.13-1.05-2.49-2.45-2.52-3.96-.01-.75.3-1.44.93-2.05.6-.62,1.27-.9,2.04-.92,1.53.02,2.95,1.42,3.97,2.52l3.05-3.05c-1.13-1.05-2.5-2.45-2.52-3.97-.01-.75.3-1.44.93-2.05.6-.62,1.29-.93,2.04-.92,1.53.02,2.95,1.42,3.97,2.52l3.05-3.05c-1.13-1.05-2.5-2.45-2.52-3.97-.01-.75.3-1.44.93-2.05.6-.62,1.3-.96,2.04-.92,1.53.02,2.95,1.42,3.97,2.52l3.05-3.05c-1.13-1.05-2.5-2.45-2.52-3.97-.01-.75.3-1.44.93-2.05.6-.62,1.28-.96,2.04-.92,1.53.02,2.95,1.42,3.97,2.52l3.05-3.05c-1.13-1.05-2.5-2.45-2.52-3.97-.01-.75.3-1.44.93-2.05.6-.62,1.3-.91,2.04-.92,1.53.02,2.95,1.42,3.96,2.51.08-.09.17-.18.26-.27,1.13-1.2,2.54-2.69,4.12-2.7h.02c.72,0,1.38.31,1.97.92.57.56.88,1.33.88,2.14s-.31,1.57-.89,2.15l-2.06,2.06c1.13,1.05,2.5,2.45,2.52,3.97.01.75-.3,1.44-.93,2.05-.59.61-1.27.92-2,.92-.01,0-.03,0-.04,0-1.53-.02-2.95-1.42-3.97-2.52l-3.05,3.05c1.13,1.05,2.5,2.45,2.52,3.97.01.75-.3,1.44-.93,2.05-.6.62-1.29.91-2.04.92-1.53-.02-2.95-1.42-3.97-2.52l-3.05,3.05c1.13,1.05,2.5,2.45,2.52,3.97.01.75-.3,1.44-.93,2.05-.59.61-1.27.92-2,.92h-.04c-1.53-.02-2.95-1.42-3.97-2.52l-3.05,3.05c1.13,1.05,2.5,2.45,2.52,3.97.01.75-.3,1.44-.93,2.05-.6.62-1.3.93-2.04.92-1.53-.02-2.95-1.42-3.97-2.52l-3.05,3.05c1.13,1.05,2.5,2.45,2.52,3.97.01.75-.3,1.44-.93,2.05-.6.62-1.25.93-2.04.92-1.53-.02-2.95-1.42-3.96-2.52-.08.09-.17.18-.26.28-1.13,1.2-2.54,2.69-4.12,2.7h-.02ZM28.61,56.57c-.46,0-.89.21-1.3.63-.44.43-.65.86-.64,1.33.02,1.26,1.53,2.64,2.52,3.55l.38.35-.31.42c-.2.2-.43.42-.67.65-1,.95-2.38,2.25-2.38,3.4,0,.44.2.86.61,1.26.41.42.82.63,1.26.63h0c1.15,0,2.45-1.38,3.4-2.38.23-.25.45-.48.65-.67l.37-.36.35.38c.96,1.05,2.34,2.56,3.6,2.58.47,0,.9-.2,1.32-.63.44-.43.65-.86.64-1.33-.02-1.26-1.53-2.64-2.52-3.55l-.39-.35.32-.42,4.16-4.16.35.39c.96,1.05,2.34,2.56,3.6,2.58.48.01.9-.2,1.32-.63.44-.43.65-.86.64-1.33-.02-1.26-1.53-2.64-2.52-3.55l-.39-.35.32-.42,4.16-4.16.35.39c.96,1.06,2.34,2.56,3.6,2.58.46,0,.9-.2,1.32-.63.44-.43.65-.86.64-1.33-.02-1.26-1.53-2.63-2.52-3.54l-.39-.35.31-.42,4.16-4.16.35.39c.96,1.05,2.34,2.56,3.6,2.58.47-.01.9-.2,1.32-.63.44-.43.65-.86.64-1.33-.02-1.26-1.53-2.63-2.52-3.55l-.39-.35.31-.42,4.16-4.16.35.39c.96,1.05,2.34,2.56,3.6,2.58.48,0,.9-.2,1.32-.63.44-.43.65-.86.64-1.33-.02-1.26-1.53-2.63-2.52-3.54l-.39-.35.31-.42,2.43-2.43c.38-.38.59-.89.59-1.44s-.21-1.06-.59-1.44c-.41-.42-.8-.64-1.26-.62-1.16,0-2.45,1.38-3.4,2.38-.23.25-.45.48-.65.67l-.37.36-.35-.38c-.96-1.05-2.34-2.56-3.6-2.58-.46.01-.9.2-1.32.63-.44.43-.65.86-.64,1.33.02,1.26,1.53,2.64,2.52,3.55l.39.35-.31.42-4.16,4.16-.35-.39c-.96-1.05-2.34-2.56-3.6-2.58-.47-.03-.9.2-1.32.63-.44.43-.65.86-.64,1.33.02,1.26,1.53,2.64,2.52,3.55l.39.35-.32.42-4.16,4.16-.35-.39c-.96-1.05-2.34-2.56-3.6-2.58-.48-.02-.9.2-1.32.63-.44.43-.65.86-.64,1.33.02,1.26,1.53,2.64,2.52,3.55l.39.35-.31.42-4.16,4.16-.35-.39c-.96-1.05-2.34-2.56-3.6-2.58-.47-.01-.9.2-1.32.63-.44.43-.65.86-.64,1.33.02,1.26,1.53,2.64,2.53,3.55l.39.35-.32.42-4.16,4.16-.35-.39c-.96-1.05-2.34-2.56-3.6-2.58h-.02Z"></path>
  </g>
</svg>